<mxfile host="Electron" modified="2023-04-25T17:11:46.948Z" agent="Mozilla/5.0 (Windows NT 10.0; Win64; x64) AppleWebKit/537.36 (KHTML, like Gecko) draw.io/21.2.1 Chrome/112.0.5615.87 Electron/24.1.2 Safari/537.36" etag="_t9uPCIUCqWcUBUQ02US" scale="1" border="0" version="21.2.1" type="device">
  <diagram name="Page-1" id="e7e014a7-5840-1c2e-5031-d8a46d1fe8dd">
    <mxGraphModel dx="1434" dy="854" grid="1" gridSize="10" guides="1" tooltips="1" connect="1" arrows="1" fold="1" page="1" pageScale="1" pageWidth="1169" pageHeight="826" background="none" math="0" shadow="0">
      <root>
        <mxCell id="0" />
        <mxCell id="1" parent="0" />
        <mxCell id="3" value="" style="swimlane;whiteSpace=wrap" parent="1" vertex="1">
          <mxGeometry x="445" y="150" width="280" height="570" as="geometry" />
        </mxCell>
        <mxCell id="UT-MoctCeA6iI2oHUS-s-41" value="Patient" style="rounded=0;whiteSpace=wrap;html=1;" vertex="1" parent="3">
          <mxGeometry x="80" y="32" width="120" height="28" as="geometry" />
        </mxCell>
        <mxCell id="UT-MoctCeA6iI2oHUS-s-43" value="vein identifier" style="rounded=0;whiteSpace=wrap;html=1;" vertex="1" parent="3">
          <mxGeometry x="80" y="150" width="120" height="30" as="geometry" />
        </mxCell>
        <mxCell id="UT-MoctCeA6iI2oHUS-s-44" value="image processor" style="rounded=0;whiteSpace=wrap;html=1;" vertex="1" parent="3">
          <mxGeometry x="80" y="300" width="120" height="30" as="geometry" />
        </mxCell>
        <mxCell id="UT-MoctCeA6iI2oHUS-s-45" value="image display" style="rounded=0;whiteSpace=wrap;html=1;" vertex="1" parent="3">
          <mxGeometry x="80" y="450" width="120" height="28" as="geometry" />
        </mxCell>
        <mxCell id="UT-MoctCeA6iI2oHUS-s-51" value="" style="endArrow=classic;html=1;rounded=0;strokeColor=#FF0000;" edge="1" parent="3">
          <mxGeometry relative="1" as="geometry">
            <mxPoint x="135" y="70" as="sourcePoint" />
            <mxPoint x="135" y="140" as="targetPoint" />
          </mxGeometry>
        </mxCell>
        <mxCell id="UT-MoctCeA6iI2oHUS-s-52" value="identify the vein" style="edgeLabel;resizable=0;html=1;align=center;verticalAlign=middle;" connectable="0" vertex="1" parent="UT-MoctCeA6iI2oHUS-s-51">
          <mxGeometry relative="1" as="geometry" />
        </mxCell>
        <mxCell id="UT-MoctCeA6iI2oHUS-s-53" value="" style="endArrow=classic;html=1;rounded=0;strokeColor=#FF0000;" edge="1" parent="3">
          <mxGeometry relative="1" as="geometry">
            <mxPoint x="135" y="190" as="sourcePoint" />
            <mxPoint x="135" y="290" as="targetPoint" />
          </mxGeometry>
        </mxCell>
        <mxCell id="UT-MoctCeA6iI2oHUS-s-54" value="send image to raspberry pi" style="edgeLabel;resizable=0;html=1;align=center;verticalAlign=middle;" connectable="0" vertex="1" parent="UT-MoctCeA6iI2oHUS-s-53">
          <mxGeometry relative="1" as="geometry" />
        </mxCell>
        <mxCell id="UT-MoctCeA6iI2oHUS-s-55" value="" style="endArrow=classic;html=1;rounded=0;strokeColor=#FF0000;" edge="1" parent="3">
          <mxGeometry relative="1" as="geometry">
            <mxPoint x="135" y="340" as="sourcePoint" />
            <mxPoint x="135" y="440" as="targetPoint" />
          </mxGeometry>
        </mxCell>
        <mxCell id="UT-MoctCeA6iI2oHUS-s-56" value="display processed image" style="edgeLabel;resizable=0;html=1;align=center;verticalAlign=middle;" connectable="0" vertex="1" parent="UT-MoctCeA6iI2oHUS-s-55">
          <mxGeometry relative="1" as="geometry" />
        </mxCell>
      </root>
    </mxGraphModel>
  </diagram>
</mxfile>
